<svg xmlns="http://www.w3.org/2000/svg" viewBox="0 0 64 64">
  <defs>
    <linearGradient id="g" x1="0%" y1="0%" x2="100%" y2="100%">
      <stop offset="0%" stop-color="#f59e0b"/>
      <stop offset="100%" stop-color="#d97706"/>
    </linearGradient>
  </defs>
  <rect width="64" height="64" rx="14" fill="#0f172a"/>
  <!-- Gear teeth -->
  <g fill="url(#g)">
    <rect x="28" y="6" width="8" height="8" rx="1"/>
    <rect x="28" y="50" width="8" height="8" rx="1"/>
    <rect x="6" y="28" width="8" height="8" rx="1"/>
    <rect x="50" y="28" width="8" height="8" rx="1"/>
    <rect x="11" y="11" width="7" height="7" rx="1" transform="rotate(45 14.5 14.5)"/>
    <rect x="46" y="11" width="7" height="7" rx="1" transform="rotate(45 49.5 14.5)"/>
    <rect x="11" y="46" width="7" height="7" rx="1" transform="rotate(45 14.5 49.5)"/>
    <rect x="46" y="46" width="7" height="7" rx="1" transform="rotate(45 49.5 49.5)"/>
  </g>
  <!-- Gear body -->
  <circle cx="32" cy="32" r="16" fill="url(#g)"/>
  <circle cx="32" cy="32" r="8" fill="#0f172a"/>
  <circle cx="32" cy="32" r="4" fill="url(#g)"/>
</svg>
